<?xml version="1.0" encoding="utf-8"?>
<!-- Generator: Adobe Illustrator 21.1.0, SVG Export Plug-In . SVG Version: 6.00 Build 0)  -->
<svg version="1.1" id="Layer_1" xmlns="http://www.w3.org/2000/svg" xmlns:xlink="http://www.w3.org/1999/xlink" x="0px" y="0px"
	 viewBox="0 0 564.2 235.9" style="enable-background:new 0 0 564.2 235.9;" xml:space="preserve">
<style type="text/css">
	.st0{fill:#DD052B;}
	.st1{fill:#C6C6C6;}
	.st2{fill:#EDEDED;}
	.st3{fill:#FFFFFF;}
	.st4{fill:#9D9D9C;}
	.st5{clip-path:url(#SVGID_2_);fill:#FFFFFF;}
	.st6{clip-path:url(#SVGID_4_);fill:#DD052B;}
	.st7{clip-path:url(#SVGID_6_);fill:#DD052B;}
	.st8{clip-path:url(#SVGID_8_);fill:#C6C6C6;}
	.st9{clip-path:url(#SVGID_10_);fill:#EDEDED;}
	.st10{clip-path:url(#SVGID_12_);fill:#FFFFFF;}
	.st11{clip-path:url(#SVGID_14_);fill:#9D9D9C;}
	.st12{clip-path:url(#SVGID_16_);fill:#FFFFFF;}
	.st13{clip-path:url(#SVGID_18_);fill:#DD052B;}
	.st14{clip-path:url(#SVGID_20_);fill:#DD052B;}
	.st15{clip-path:url(#SVGID_22_);fill:#C6C6C6;}
	.st16{clip-path:url(#SVGID_24_);fill:#EDEDED;}
	.st17{clip-path:url(#SVGID_26_);fill:#FFFFFF;}
	.st18{clip-path:url(#SVGID_28_);fill:#9D9D9C;}
	.st19{clip-path:url(#SVGID_30_);fill:#FFFFFF;}
	.st20{fill:none;}
</style>
<rect x="27" y="26.9" class="st0" width="123.6" height="123.6"/>
<path class="st0" d="M6.5,6.4h164.7v164.7H6.5V6.4z M0.1,177.5h177.5V0H0.1V177.5z"/>
<polygon class="st1" points="6.5,171.1 27,150.6 150.6,150.6 171.2,171.1 "/>
<polygon class="st2" points="6.5,6.4 27,26.9 27,150.6 6.5,171.1 "/>
<polygon class="st3" points="6.5,6.4 27,26.9 150.6,26.9 171.2,6.4 "/>
<polygon class="st4" points="150.6,26.9 171.2,6.4 171.2,171.1 150.6,150.6 "/>
<g>
	<g>
		<defs>
			<rect id="SVGID_1_" x="0.1" width="564" height="177.5"/>
		</defs>
		<clipPath id="SVGID_2_">
			<use xlink:href="#SVGID_1_"  style="overflow:visible;"/>
		</clipPath>
		<path class="st5" d="M106.1,99.4h14.2v2.6c0,10.3-1.9,17-5.7,20.1c-3.8,3-12.1,4.5-25,4.5c-14.7,0-23.7-2.4-27.1-7.2
			c-3.4-4.8-5.1-17.6-5.1-38.4c0-12.3,2.3-20.3,6.9-24.2C68.9,52.9,78.4,51,93,51c10.6,0,17.7,1.6,21.2,4.8
			c3.6,3.2,5.3,9.5,5.3,18.9l0.1,1.7h-14.2v-2c0-4.9-0.9-8-2.7-9.3c-1.8-1.4-6-2-12.5-2c-8.7,0-14,1.1-15.8,3.2
			c-1.8,2.1-2.6,8.5-2.6,19c0,14.2,0.8,22.6,2.4,25.3s6.7,3.9,15.3,3.9c7,0,11.5-0.7,13.6-2.2s3.1-4.6,3.1-9.6L106.1,99.4z"/>
	</g>
	<g>
		<defs>
			<rect id="SVGID_3_" x="0.1" width="564" height="177.5"/>
		</defs>
		<clipPath id="SVGID_4_">
			<use xlink:href="#SVGID_3_"  style="overflow:visible;"/>
		</clipPath>
		<rect x="220.3" y="26.9" class="st6" width="123.6" height="123.6"/>
	</g>
	<g>
		<defs>
			<rect id="SVGID_5_" x="0.1" width="564" height="177.5"/>
		</defs>
		<clipPath id="SVGID_6_">
			<use xlink:href="#SVGID_5_"  style="overflow:visible;"/>
		</clipPath>
		<path class="st7" d="M370.9,177.5H193.4V0h177.5V177.5z M364.5,6.4H199.8v164.7h164.7V6.4z"/>
	</g>
	<g>
		<defs>
			<rect id="SVGID_7_" x="0.1" width="564" height="177.5"/>
		</defs>
		<clipPath id="SVGID_8_">
			<use xlink:href="#SVGID_7_"  style="overflow:visible;"/>
		</clipPath>
		<polygon class="st8" points="199.8,171.1 220.3,150.6 343.9,150.6 364.5,171.1 		"/>
	</g>
	<g>
		<defs>
			<rect id="SVGID_9_" x="0.1" width="564" height="177.5"/>
		</defs>
		<clipPath id="SVGID_10_">
			<use xlink:href="#SVGID_9_"  style="overflow:visible;"/>
		</clipPath>
		<polygon class="st9" points="199.8,6.4 220.3,26.9 220.3,150.6 199.8,171.1 		"/>
	</g>
	<g>
		<defs>
			<rect id="SVGID_11_" x="0.1" width="564" height="177.5"/>
		</defs>
		<clipPath id="SVGID_12_">
			<use xlink:href="#SVGID_11_"  style="overflow:visible;"/>
		</clipPath>
		<polygon class="st10" points="199.8,6.4 220.3,26.9 343.9,26.9 364.5,6.4 		"/>
	</g>
	<g>
		<defs>
			<rect id="SVGID_13_" x="0.1" width="564" height="177.5"/>
		</defs>
		<clipPath id="SVGID_14_">
			<use xlink:href="#SVGID_13_"  style="overflow:visible;"/>
		</clipPath>
		<polygon class="st11" points="343.9,26.9 364.5,6.4 364.5,171.1 343.9,150.6 		"/>
	</g>
	<g>
		<defs>
			<rect id="SVGID_15_" x="0.1" width="564" height="177.5"/>
		</defs>
		<clipPath id="SVGID_16_">
			<use xlink:href="#SVGID_15_"  style="overflow:visible;"/>
		</clipPath>
		<polygon class="st12" points="270.6,63.5 270.6,82.6 305.5,82.6 305.5,93 270.6,93 270.6,114 307.7,114 307.7,125.9 256.5,125.9 
			256.5,51.6 307.4,51.6 307.4,63.5 		"/>
	</g>
	<g>
		<defs>
			<rect id="SVGID_17_" x="0.1" width="564" height="177.5"/>
		</defs>
		<clipPath id="SVGID_18_">
			<use xlink:href="#SVGID_17_"  style="overflow:visible;"/>
		</clipPath>
		<rect x="413.6" y="26.9" class="st13" width="123.6" height="123.6"/>
	</g>
	<g>
		<defs>
			<rect id="SVGID_19_" x="0.1" width="564" height="177.5"/>
		</defs>
		<clipPath id="SVGID_20_">
			<use xlink:href="#SVGID_19_"  style="overflow:visible;"/>
		</clipPath>
		<path class="st14" d="M564.1,177.5H386.7V0h177.5v177.5H564.1z M557.8,6.4H393.1v164.7h164.7V6.4z"/>
	</g>
	<g>
		<defs>
			<rect id="SVGID_21_" x="0.1" width="564" height="177.5"/>
		</defs>
		<clipPath id="SVGID_22_">
			<use xlink:href="#SVGID_21_"  style="overflow:visible;"/>
		</clipPath>
		<polygon class="st15" points="393,171.1 413.6,150.6 537.2,150.6 557.8,171.1 		"/>
	</g>
	<g>
		<defs>
			<rect id="SVGID_23_" x="0.1" width="564" height="177.5"/>
		</defs>
		<clipPath id="SVGID_24_">
			<use xlink:href="#SVGID_23_"  style="overflow:visible;"/>
		</clipPath>
		<polygon class="st16" points="393,6.4 413.6,26.9 413.6,150.6 393,171.1 		"/>
	</g>
	<g>
		<defs>
			<rect id="SVGID_25_" x="0.1" width="564" height="177.5"/>
		</defs>
		<clipPath id="SVGID_26_">
			<use xlink:href="#SVGID_25_"  style="overflow:visible;"/>
		</clipPath>
		<polygon class="st17" points="393,6.4 413.6,26.9 537.2,26.9 557.8,6.4 		"/>
	</g>
	<g>
		<defs>
			<rect id="SVGID_27_" x="0.1" width="564" height="177.5"/>
		</defs>
		<clipPath id="SVGID_28_">
			<use xlink:href="#SVGID_27_"  style="overflow:visible;"/>
		</clipPath>
		<polygon class="st18" points="537.2,26.9 557.8,6.4 557.8,171.1 537.2,150.6 		"/>
	</g>
	<g>
		<defs>
			<rect id="SVGID_29_" x="0.1" width="564" height="177.5"/>
		</defs>
		<clipPath id="SVGID_30_">
			<use xlink:href="#SVGID_29_"  style="overflow:visible;"/>
		</clipPath>
		<polygon class="st19" points="464.9,63.5 464.9,83.5 498.2,83.5 498.2,95.4 464.9,95.4 464.9,125.9 450.8,125.9 450.8,51.6 
			500,51.6 500,63.5 		"/>
	</g>
</g>
<path d="M554.4,236.3c4.5,0,8.8-2.4,8.8-7.2c0-3.4-2.1-5.3-5.3-6.1l-3.4-0.9c-1.7-0.4-3-0.9-3-2.1c0-1.5,1.4-2.1,3-2.1
	c1.7,0,3.5,0.7,4.5,2.1l3.6-3.1c-1.9-2.4-4.2-3.3-8.1-3.3c-4.9,0-8.3,2.9-8.3,7c0,3.5,2.2,5.3,5.2,6.1l3.8,1
	c1.4,0.4,2.5,0.9,2.5,2.2c0,1.5-1.8,2.1-3.4,2.1c-2.3,0-4.4-1.2-5.6-2.8l-3.5,3.1C547.2,235.2,550.5,236.3,554.4,236.3 M526.2,235.9
	h5.5v-17.5h6.2V214H520v4.4h6.2V235.9z M499.7,224.1v-5.8h3.4c2,0,3.2,1,3.2,2.9c0,1.8-1.2,2.9-3.2,2.9H499.7z M494.2,235.9h5.5
	v-7.7h2.5l4.3,7.7h6l-5-8.5c2.8-1.2,4.1-3.8,4.1-6.4c0-4.1-2.9-6.9-7.8-6.9h-9.6V235.9z M468.2,235.9h16.2v-4.5h-10.7V227h8.9v-4.4
	h-8.9v-4.2h10.6V214h-16.1V235.9z M446.9,224.1v-5.8h3.5c2,0,3.2,1,3.2,2.9c0,1.8-1.2,2.9-3.2,2.9H446.9z M441.4,235.9h5.5v-7.6h4.5
	c5.3,0,7.6-3.7,7.6-7.3c0-4.1-2.8-7-7.6-7h-9.9L441.4,235.9L441.4,235.9z M413,235.9h5.8l4.1-7.4l4.3,7.4h6l-6.8-11.3l6.3-10.6h-5.6
	l-3.8,6.8l-3.8-6.8h-6l6.3,10.5L413,235.9z M389.1,235.9h16.2v-4.5h-10.7V227h8.9v-4.4h-8.9v-4.2h10.6V214h-16.1V235.9z
	 M350.7,235.9h15.9v-4.5h-10.4V214h-5.5V235.9z M328.7,227.5l2.5-7.9h0.1l2.5,7.9H328.7z M320.8,235.9h5.2l1.4-4.1h7.8l1.3,4.1h5.6
	l-7.7-21.9h-5.9L320.8,235.9z M304.8,236.3c4.2,0,8.7-2.1,8.7-7.2V228h-5.2v0.5c0,2.3-1.9,3.3-3.6,3.3c-2.2,0-3.9-1.3-3.9-3.5v-6.6
	c0-2.5,1.9-3.5,3.8-3.5c1.7,0,3.6,1,3.6,3.3v0.5h5.2v-1c0-5.1-4.6-7.2-8.9-7.2c-4.9,0-9.2,2.7-9.2,8v6.7
	C295.5,233.9,300,236.3,304.8,236.3 M280.4,235.9h5.5V214h-5.5V235.9z M258.6,224.1v-5.8h3.4c2,0,3.2,1,3.2,2.9
	c0,1.8-1.2,2.9-3.2,2.9H258.6z M253.1,235.9h5.5v-7.7h2.5l4.3,7.7h6l-5-8.5c2.8-1.2,4.1-3.8,4.1-6.4c0-4.1-2.9-6.9-7.8-6.9h-9.6
	V235.9z M232.4,235.9h5.5v-17.5h6.2V214h-17.9v4.4h6.2L232.4,235.9L232.4,235.9z M209.3,236.3c4.2,0,8.7-2.1,8.7-7.2V228h-5.2v0.5
	c0,2.3-1.9,3.3-3.6,3.3c-2.2,0-3.9-1.3-3.9-3.5v-6.6c0-2.5,1.9-3.5,3.8-3.5c1.7,0,3.6,1,3.6,3.3v0.5h5.2v-1c0-5.1-4.6-7.2-8.9-7.2
	c-4.9,0-9.2,2.7-9.2,8v6.7C200,233.9,204.5,236.3,209.3,236.3 M174.9,235.9h16.2v-4.5h-10.7V227h8.9v-4.4h-8.9v-4.2H191V214h-16.1
	V235.9z M150,235.9h15.9v-4.5h-10.4V214H150V235.9z M124,235.9h16.2v-4.5h-10.7V227h8.9v-4.4h-8.9v-4.2h10.6V214H124V235.9z
	 M88.8,224.1v-5.8h3.4c2,0,3.2,1,3.2,2.9c0,1.8-1.2,2.9-3.2,2.9H88.8z M83.3,235.9h5.5v-7.7h2.5l4.3,7.7h6l-5-8.5
	c2.8-1.2,4.1-3.8,4.1-6.4c0-4.1-2.9-6.9-7.8-6.9h-9.6V235.9z M64,236.3c5.1,0,9.2-2.9,9.2-8.3v-13.9h-5.4v13.8c0,2.6-1.3,4-3.6,4
	c-2.5,0-3.7-1.5-3.7-4v-13.8H55v14.1C54.9,233.6,58.4,236.3,64,236.3 M36.1,231.8c-2.2,0-3.9-1.3-3.9-3.6v-6.4
	c0-2.5,1.8-3.6,3.8-3.6c2.1,0,3.9,1.3,3.9,3.6v6.5C39.9,230.7,38.1,231.8,36.1,231.8 M36.1,236.3c4.6,0,9.3-2.6,9.3-8.3v-6.1
	c0-5.7-4.5-8.3-9.4-8.3c-4.7,0-9.2,2.7-9.2,8.3v6.3C26.8,233.9,31.2,236.3,36.1,236.3 M7.3,235.9h5.4v-8.6l7.2-13.3h-5.5l-4.2,8.6
	L5.8,214H0l7.2,13.2v8.7H7.3z"/>
<rect x="0.1" class="st20" width="564.1" height="236.3"/>
</svg>
